<?xml version="1.0" encoding="UTF-8"?>
<!DOCTYPE svg PUBLIC "-//W3C//DTD SVG 1.1//EN" "http://www.w3.org/Graphics/SVG/1.1/DTD/svg11.dtd">
<!-- Creator: CorelDRAW 2019 (64-Bit) -->
<svg xmlns="http://www.w3.org/2000/svg" xml:space="preserve" width="26.5mm" height="7mm" version="1.1" style="shape-rendering:geometricPrecision; text-rendering:geometricPrecision; image-rendering:optimizeQuality; fill-rule:evenodd; clip-rule:evenodd"
viewBox="0 0 2650 700"
 xmlns:xlink="http://www.w3.org/1999/xlink"
 xmlns:xodm="http://www.corel.com/coreldraw/odm/2003">
 <defs>
  <style type="text/css">
   <![CDATA[
    .fil0 {fill:#FF7F61;fill-rule:nonzero}
   ]]>
  </style>
 </defs>
 <g id="Слой_x0020_1">
  <metadata id="CorelCorpID_0Corel-Layer"/>
  <path class="fil0" d="M103.2 79.53c4.76,-22.33 12.38,-39.79 22.96,-52.39 9.32,-11.32 26.67,-16.83 52.07,-16.4l134.31 0c16.51,-0.43 29.31,1.16 38.41,4.65 7.84,4.13 13.23,9.63 16.09,16.41 2.54,6.03 3.28,12.59 2.54,19.89 -1.69,8.47 -3.39,15.99 -4.97,22.65l-17.36 74.72 -111.65 0 11.11 -46.57 -39.69 0 -21.7 93.03 150.39 0 -51.11 214.84c-5.4,22.33 -12.6,38.74 -21.7,49 -10.79,9.74 -28.26,14.61 -52.39,14.61l-132.08 0c-19.68,0 -34.82,-6.67 -45.61,-20.11 -9.74,-12.06 -12.91,-28.04 -9.63,-48.15l18.31 -70.7 110.38 0 -11.75 46.25 40.54 0 21.8 -92.39 -150.39 0 51.12 -209.34z"/>
  <polygon id="1" class="fil0" points="482.08,473.97 370.11,473.97 461.02,101.86 406.41,101.86 428.43,10.42 654.17,10.42 631.2,101.86 573.84,101.86 "/>
  <path id="2" class="fil0" d="M769.53 195.52l28.26 0 22.96 -92.71 -31 0 -20.22 92.71zm-188.81 278.45l103.19 -401.21c6.25,-20.11 13.65,-35.67 22.33,-46.78 8.68,-10.8 26.25,-16.2 52.71,-16.2l123.72 0c15.98,0 28.25,1.17 36.93,3.39 9.74,2.54 16.72,6.77 21.06,12.81 4.13,7.19 5.93,17.35 5.3,30.37 -1.27,11.54 -4.66,27.09 -10.27,46.46l-92.71 372.11 -117.16 0 48.69 -185.42 -31.97 0 -45.82 185.42 -116 -0.95z"/>
  <path id="3" class="fil0" d="M1096.03 103.76l-25.4 92.08 31.64 0 22.33 -92.08 -28.57 0zm-208.07 370.85l115.68 -464.51 174.83 0c22.76,0.43 39.48,5.29 50.27,14.61 12.18,9.73 19.05,26.35 20.75,49.95l-42.44 156.85c-2.54,9.94 -6.88,18.62 -13.02,26.03 -5.4,6.03 -11.43,11.22 -17.99,15.56 -6.67,4.13 -12.91,7.72 -18.94,10.79 -6.25,1.91 -11.33,3.71 -15.46,5.61l31.01 185.11 -112.92 0 -21.38 -146.37 -35.03 146.37 -115.36 0z"/>
  <polygon id="4" class="fil0" points="1570.79,473.97 1458.82,473.97 1549.73,101.86 1495.12,101.86 1517.14,10.42 1742.88,10.42 1719.91,101.86 1662.55,101.86 "/>
  <path id="5" class="fil0" d="M1880.89 103.76l-25.4 92.08 31.64 0 22.33 -92.08 -28.57 0zm-208.07 370.85l115.68 -464.51 174.83 0c22.76,0.43 39.48,5.29 50.27,14.61 12.18,9.73 19.05,26.35 20.75,49.95l-42.44 156.85c-2.54,9.94 -6.88,18.62 -13.02,26.03 -5.4,6.03 -11.43,11.22 -17.99,15.56 -6.67,4.13 -12.91,7.72 -18.94,10.79 -6.25,1.91 -11.33,3.71 -15.46,5.61l31.01 185.11 -112.92 0 -21.38 -146.37 -35.03 146.37 -115.36 0z"/>
  <polygon id="6" class="fil0" points="1982.28,474.61 2100.7,9.47 2325.49,9.47 2299.14,102.49 2192.57,102.49 2169.92,195.2 2275.33,195.2 2252.36,288.87 2145.68,288.87 2120.92,381.89 2229.08,381.89 2206.43,474.61 "/>
  <polygon id="7" class="fil0" points="2242.74,473.97 2355.98,11.69 2471.23,11.69 2439.06,134.14 2510.07,11.69 2623.52,11.69 2490.17,242.62 2508.8,473.97 2393.76,473.97 2389.1,342.52 2356.82,473.97 "/>
  <polygon class="fil0" points="67.26,696.71 23.71,696.71 59.07,552 37.83,552 46.39,516.44 134.18,516.44 125.25,552 102.94,552 "/>
  <polygon id="1" class="fil0" points="149.17,696.96 195.35,516.69 239.6,516.69 221.4,588.8 233.71,588.8 251.41,516.69 295.65,516.69 250.71,696.96 206.79,696.96 224.16,624.97 213.42,624.97 194.61,696.96 "/>
  <polygon id="2" class="fil0" points="309.79,696.96 355.84,516.07 443.26,516.07 433.01,552.25 391.57,552.25 382.76,588.3 423.75,588.3 414.82,624.73 373.33,624.73 363.7,660.9 405.76,660.9 396.96,696.96 "/>
  <polygon id="3" class="fil0" points="528.92,696.96 575.02,516.69 662.64,516.69 651.94,552.37 611.15,552.37 601.64,588.8 643.5,588.8 633.83,625.1 592.01,625.1 573.9,696.96 "/>
  <polygon id="4" class="fil0" points="673.69,697.08 718.88,516.44 764.11,516.44 718.38,697.08 "/>
  <path id="5" class="fil0" d="M776.06 697.08l45.07 -180.76 70.91 0c12.55,0.16 20.04,3.09 22.55,8.81 3.05,5.64 3.17,14.07 0.38,25.31l-37.5 146.64 -45.23 0 36.55 -144.83 -11.49 0 -36.87 144.83 -44.37 0z"/>
  <path id="6" class="fil0" d="M1010.96 588.43l10.99 0 8.93 -36.06 -12.06 0 -7.86 36.06zm-73.43 108.28l40.13 -156.02c2.43,-7.82 5.31,-13.87 8.69,-18.2 3.37,-4.19 10.2,-6.29 20.49,-6.29l48.11 0c6.22,0 10.99,0.45 14.37,1.31 3.78,0.99 6.5,2.64 8.19,4.98 1.6,2.8 2.3,6.75 2.06,11.82 -0.5,4.48 -1.81,10.53 -4,18.06l-36.05 144.71 -45.56 0 18.93 -72.11 -12.43 0 -17.82 72.11 -45.11 -0.37z"/>
  <polygon id="7" class="fil0" points="1099.5,696.71 1144.81,515.83 1191.36,515.83 1154.24,660.66 1194.86,660.66 1185.81,696.71 "/>
  <polygon id="8" class="fil0" points="1318.26,696.96 1364.36,516.69 1451.98,516.69 1441.28,552.37 1400.49,552.37 1390.98,588.8 1432.84,588.8 1423.17,625.1 1381.35,625.1 1363.24,696.96 "/>
  <path id="9" class="fil0" d="M1544.52 552.74l-9.88 35.81 12.3 0 8.69 -35.81 -11.11 0zm-80.92 144.22l44.99 -180.64 67.99 0c8.85,0.16 15.35,2.06 19.55,5.68 4.73,3.79 7.4,10.25 8.06,19.43l-16.5 60.99c-0.99,3.87 -2.68,7.24 -5.06,10.12 -2.1,2.35 -4.45,4.37 -7,6.05 -2.59,1.61 -5.02,3.01 -7.37,4.2 -2.43,0.74 -4.4,1.44 -6.01,2.18l12.06 71.99 -43.91 0 -8.31 -56.92 -13.63 56.92 -44.86 0z"/>
  <path id="10" class="fil0" d="M1711.3 552.37l-27 108.53 11.12 0 27.49 -108.53 -11.61 0zm-58.69 144.59c-7.24,0.24 -12.34,-1.9 -15.31,-6.38 -3.25,-4.53 -4.03,-9.96 -2.43,-16.3l33.63 -131.04c1.93,-7.33 5.1,-13.58 9.55,-18.73 4.65,-5.23 10.86,-7.9 18.68,-8.07l51.61 0c7.45,0.17 13.38,2.84 17.7,8.07 4.45,5.39 5.43,12.35 3.05,20.87l-31 123.96c-2.26,9.18 -5.59,16.22 -10,21.24 -3.95,4.48 -10.33,6.62 -19.18,6.38l-56.3 0z"/>
  <path id="11" class="fil0" d="M1790.09 697.08l45.07 -180.76 70.91 0c12.55,0.16 20.04,3.09 22.55,8.81 3.05,5.64 3.17,14.07 0.38,25.31l-37.5 146.64 -45.23 0 36.55 -144.83 -11.49 0 -36.87 144.83 -44.37 0z"/>
  <polygon id="12" class="fil0" points="2019.93,696.71 1976.38,696.71 2011.74,552 1990.5,552 1999.06,516.44 2086.85,516.44 2077.92,552 2055.61,552 "/>
  <polygon id="13" class="fil0" points="2102.59,697.08 2147.78,516.44 2193.01,516.44 2147.28,697.08 "/>
  <polygon id="14" class="fil0" points="2204.1,696.96 2250.15,516.07 2337.57,516.07 2327.32,552.25 2285.88,552.25 2277.07,588.3 2318.06,588.3 2309.13,624.73 2267.64,624.73 2258.01,660.9 2300.07,660.9 2291.27,696.96 "/>
  <path id="15" class="fil0" d="M2430.11 552.74l-9.88 35.81 12.3 0 8.69 -35.81 -11.11 0zm-80.92 144.22l44.99 -180.64 67.99 0c8.85,0.16 15.35,2.06 19.55,5.68 4.73,3.79 7.4,10.25 8.06,19.43l-16.5 60.99c-0.99,3.87 -2.68,7.24 -5.06,10.12 -2.1,2.35 -4.45,4.37 -7,6.05 -2.59,1.61 -5.02,3.01 -7.37,4.2 -2.43,0.74 -4.4,1.44 -6.01,2.18l12.06 71.99 -43.91 0 -8.31 -56.92 -13.63 56.92 -44.86 0z"/>
 </g>
</svg>
