<svg xmlns="http://www.w3.org/2000/svg" width="26.5mm" height="7mm" viewBox="0 0 2650 700" shape-rendering="geometricPrecision" text-rendering="geometricPrecision" image-rendering="optimizeQuality" fill-rule="evenodd" clip-rule="evenodd"><defs><style>.fil0{fill:#ff7f61;fill-rule:nonzero}</style></defs><g id="Слой_x0020_1"><path class="fil0" d="M103.2 79.53c4.76-22.33 12.38-39.79 22.96-52.39 9.32-11.32 26.67-16.83 52.07-16.4h134.31c16.51-.43 29.31 1.16 38.41 4.65 7.84 4.13 13.23 9.63 16.09 16.41 2.54 6.03 3.28 12.59 2.54 19.89a636.94 636.94 0 01-4.97 22.65l-17.36 74.72H235.6l11.11-46.57h-39.69l-21.7 93.03h150.39L284.6 410.36c-5.4 22.33-12.6 38.74-21.7 49-10.79 9.74-28.26 14.61-52.39 14.61H78.43c-19.68 0-34.82-6.67-45.61-20.11-9.74-12.06-12.91-28.04-9.63-48.15l18.31-70.7h110.38l-11.75 46.25h40.54l21.8-92.39H52.08L103.2 79.53z"/><path id="1" class="fil0" d="M482.08 473.97H370.11l90.91-372.11h-54.61l22.02-91.44h225.74l-22.97 91.44h-57.36z"/><path id="2" class="fil0" d="M769.53 195.52h28.26l22.96-92.71h-31l-20.22 92.71zM580.72 473.97L683.91 72.76c6.25-20.11 13.65-35.67 22.33-46.78 8.68-10.8 26.25-16.2 52.71-16.2h123.72c15.98 0 28.25 1.17 36.93 3.39 9.74 2.54 16.72 6.77 21.06 12.81 4.13 7.19 5.93 17.35 5.3 30.37-1.27 11.54-4.66 27.09-10.27 46.46l-92.71 372.11H725.82l48.69-185.42h-31.97l-45.82 185.42-116-.95z"/><path id="3" class="fil0" d="M1096.03 103.76l-25.4 92.08h31.64l22.33-92.08h-28.57zM887.96 474.61L1003.64 10.1h174.83c22.76.43 39.48 5.29 50.27 14.61 12.18 9.73 19.05 26.35 20.75 49.95l-42.44 156.85c-2.54 9.94-6.88 18.62-13.02 26.03a92.954 92.954 0 01-17.99 15.56c-6.67 4.13-12.91 7.72-18.94 10.79-6.25 1.91-11.33 3.71-15.46 5.61l31.01 185.11h-112.92l-21.38-146.37-35.03 146.37H887.96z"/><path id="4" class="fil0" d="M1570.79 473.97h-111.97l90.91-372.11h-54.61l22.02-91.44h225.74l-22.97 91.44h-57.36z"/><path id="5" class="fil0" d="M1880.89 103.76l-25.4 92.08h31.64l22.33-92.08h-28.57zm-208.07 370.85L1788.5 10.1h174.83c22.76.43 39.48 5.29 50.27 14.61 12.18 9.73 19.05 26.35 20.75 49.95l-42.44 156.85c-2.54 9.94-6.88 18.62-13.02 26.03a92.954 92.954 0 01-17.99 15.56c-6.67 4.13-12.91 7.72-18.94 10.79-6.25 1.91-11.33 3.71-15.46 5.61l31.01 185.11h-112.92l-21.38-146.37-35.03 146.37h-115.36z"/><path id="6" class="fil0" d="M1982.28 474.61L2100.7 9.47h224.79l-26.35 93.02h-106.57l-22.65 92.71h105.41l-22.97 93.67h-106.68l-24.76 93.02h108.16l-22.65 92.72z"/><path id="7" class="fil0" d="M2242.74 473.97l113.24-462.28h115.25l-32.17 122.45 71.01-122.45h113.45l-133.35 230.93 18.63 231.35h-115.04l-4.66-131.45-32.28 131.45z"/><path class="fil0" d="M67.26 696.71H23.71L59.07 552H37.83l8.56-35.56h87.79L125.25 552h-22.31z"/><path id="1" class="fil0" d="M149.17 696.96l46.18-180.27h44.25l-18.2 72.11h12.31l17.7-72.11h44.24l-44.94 180.27h-43.92l17.37-71.99h-10.74l-18.81 71.99z"/><path id="2" class="fil0" d="M309.79 696.96l46.05-180.89h87.42l-10.25 36.18h-41.44l-8.81 36.05h40.99l-8.93 36.43h-41.49l-9.63 36.17h42.06l-8.8 36.06z"/><path id="3" class="fil0" d="M528.92 696.96l46.1-180.27h87.62l-10.7 35.68h-40.79l-9.51 36.43h41.86l-9.67 36.3h-41.82l-18.11 71.86z"/><path id="4" class="fil0" d="M673.69 697.08l45.19-180.64h45.23l-45.73 180.64z"/><path id="5" class="fil0" d="M776.06 697.08l45.07-180.76h70.91c12.55.16 20.04 3.09 22.55 8.81 3.05 5.64 3.17 14.07.38 25.31l-37.5 146.64h-45.23l36.55-144.83H857.3l-36.87 144.83h-44.37z"/><path id="6" class="fil0" d="M1010.96 588.43h10.99l8.93-36.06h-12.06l-7.86 36.06zm-73.43 108.28l40.13-156.02c2.43-7.82 5.31-13.87 8.69-18.2 3.37-4.19 10.2-6.29 20.49-6.29h48.11c6.22 0 10.99.45 14.37 1.31 3.78.99 6.5 2.64 8.19 4.98 1.6 2.8 2.3 6.75 2.06 11.82-.5 4.48-1.81 10.53-4 18.06l-36.05 144.71h-45.56l18.93-72.11h-12.43l-17.82 72.11-45.11-.37z"/><path id="7" class="fil0" d="M1099.5 696.71l45.31-180.88h46.55l-37.12 144.83h40.62l-9.05 36.05z"/><path id="8" class="fil0" d="M1318.26 696.96l46.1-180.27h87.62l-10.7 35.68h-40.79l-9.51 36.43h41.86l-9.67 36.3h-41.82l-18.11 71.86z"/><path id="9" class="fil0" d="M1544.52 552.74l-9.88 35.81h12.3l8.69-35.81h-11.11zm-80.92 144.22l44.99-180.64h67.99c8.85.16 15.35 2.06 19.55 5.68 4.73 3.79 7.4 10.25 8.06 19.43l-16.5 60.99c-.99 3.87-2.68 7.24-5.06 10.12-2.1 2.35-4.45 4.37-7 6.05-2.59 1.61-5.02 3.01-7.37 4.2-2.43.74-4.4 1.44-6.01 2.18l12.06 71.99h-43.91l-8.31-56.92-13.63 56.92h-44.86z"/><path id="10" class="fil0" d="M1711.3 552.37l-27 108.53h11.12l27.49-108.53h-11.61zm-58.69 144.59c-7.24.24-12.34-1.9-15.31-6.38-3.25-4.53-4.03-9.96-2.43-16.3l33.63-131.04c1.93-7.33 5.1-13.58 9.55-18.73 4.65-5.23 10.86-7.9 18.68-8.07h51.61c7.45.17 13.38 2.84 17.7 8.07 4.45 5.39 5.43 12.35 3.05 20.87l-31 123.96c-2.26 9.18-5.59 16.22-10 21.24-3.95 4.48-10.33 6.62-19.18 6.38h-56.3z"/><path id="11" class="fil0" d="M1790.09 697.08l45.07-180.76h70.91c12.55.16 20.04 3.09 22.55 8.81 3.05 5.64 3.17 14.07.38 25.31l-37.5 146.64h-45.23l36.55-144.83h-11.49l-36.87 144.83h-44.37z"/><path id="12" class="fil0" d="M2019.93 696.71h-43.55L2011.74 552h-21.24l8.56-35.56h87.79l-8.93 35.56h-22.31z"/><path id="13" class="fil0" d="M2102.59 697.08l45.19-180.64h45.23l-45.73 180.64z"/><path id="14" class="fil0" d="M2204.1 696.96l46.05-180.89h87.42l-10.25 36.18h-41.44l-8.81 36.05h40.99l-8.93 36.43h-41.49l-9.63 36.17h42.06l-8.8 36.06z"/><path id="15" class="fil0" d="M2430.11 552.74l-9.88 35.81h12.3l8.69-35.81h-11.11zm-80.92 144.22l44.99-180.64h67.99c8.85.16 15.35 2.06 19.55 5.68 4.73 3.79 7.4 10.25 8.06 19.43l-16.5 60.99c-.99 3.87-2.68 7.24-5.06 10.12-2.1 2.35-4.45 4.37-7 6.05-2.59 1.61-5.02 3.01-7.37 4.2-2.43.74-4.4 1.44-6.01 2.18l12.06 71.99h-43.91l-8.31-56.92-13.63 56.92h-44.86z"/></g></svg>